{
    "asset" : {
        "copyright" : "textures",
        "generator" : "Khronos glTF Blender I/O v1.5.17",
        "version" : "2.0"
    },
    "scene" : 0,
    "scenes" : [
        {
            "name" : "Scene",
            "nodes" : [
                7,
                8
            ]
        }
    ],
    "nodes" : [
        {
            "mesh" : 0,
            "name" : "Plane001__0"
        },
        {
            "children" : [
                0
            ],
            "name" : "Plane001"
        },
        {
            "mesh" : 1,
            "name" : "Plane002__0"
        },
        {
            "children" : [
                2
            ],
            "name" : "Plane002"
        },
        {
            "children" : [
                1,
                3
            ],
            "name" : "RootNode"
        },
        {
            "children" : [
                4
            ],
            "name" : "20b4b570e779450ea0d9896eeb0a53a3.fbx",
            "rotation" : [
                0.7071068286895752,
                0,
                0,
                0.7071068286895752
            ]
        },
        {
            "children" : [
                5
            ],
            "name" : "RootNode (model correction matrix)"
        },
        {
            "children" : [
                6
            ],
            "name" : "RootNode (gltf orientation matrix)",
            "rotation" : [
                -0.7071068286895752,
                0,
                0,
                0.7071068286895752
            ],
            "scale" : [
                1.3700000047683716,
                0.8799999952316284,
                0.6800000071525574
            ]
        },
        {
            "name" : "Light",
            "rotation" : [
                0.16907575726509094,
                0.7558803558349609,
                -0.27217137813568115,
                0.570947527885437
            ],
            "translation" : [
                4.076245307922363,
                5.903861999511719,
                -1.0054539442062378
            ]
        }
    ],
    "materials" : [
        {
            "name" : "Plane001__0",
            "normalTexture" : {
                "index" : 0
            },
            "occlusionTexture" : {
                "index" : 1
            },
            "pbrMetallicRoughness" : {
                "baseColorTexture" : {
                    "index" : 2
                },
                "metallicFactor" : 0,
                "metallicRoughnessTexture" : {
                    "index" : 1
                }
            }
        },
        {
            "name" : "Plane002__0",
            "occlusionTexture" : {
                "index" : 3
            },
            "pbrMetallicRoughness" : {
                "baseColorTexture" : {
                    "index" : 4
                },
                "metallicFactor" : 0,
                "metallicRoughnessTexture" : {
                    "index" : 3
                }
            }
        }
    ],
    "meshes" : [
        {
            "name" : "Plane001__0",
            "primitives" : [
                {
                    "attributes" : {
                        "POSITION" : 0,
                        "NORMAL" : 1,
                        "TEXCOORD_0" : 2,
                        "TEXCOORD_1" : 3,
                        "TEXCOORD_2" : 4
                    },
                    "indices" : 5,
                    "material" : 0
                }
            ]
        },
        {
            "name" : "Plane002__0",
            "primitives" : [
                {
                    "attributes" : {
                        "POSITION" : 6,
                        "NORMAL" : 7,
                        "TEXCOORD_0" : 8,
                        "TEXCOORD_1" : 9,
                        "TEXCOORD_2" : 10
                    },
                    "indices" : 11,
                    "material" : 1
                }
            ]
        }
    ],
    "textures" : [
        {
            "sampler" : 0,
            "source" : 0
        },
        {
            "sampler" : 0,
            "source" : 1
        },
        {
            "sampler" : 0,
            "source" : 2
        },
        {
            "sampler" : 0,
            "source" : 3
        },
        {
            "sampler" : 0,
            "source" : 4
        }
    ],
    "images" : [
        {
            "bufferView" : 6,
            "mimeType" : "image/png",
            "name" : "Plane001__0_normal"
        },
        {
            "bufferView" : 7,
            "mimeType" : "image/png",
            "name" : "Plane001__0_metallicRoughness"
        },
        {
            "bufferView" : 8,
            "mimeType" : "image/png",
            "name" : "Plane001__0_baseColor"
        },
        {
            "bufferView" : 15,
            "mimeType" : "image/png",
            "name" : "Plane002__0_metallicRoughness"
        },
        {
            "bufferView" : 16,
            "mimeType" : "image/png",
            "name" : "Plane002__0_baseColor"
        }
    ],
    "accessors" : [
        {
            "bufferView" : 0,
            "componentType" : 5126,
            "count" : 28,
            "max" : [
                4.978283405303955,
                3.205634117126465,
                10.25
            ],
            "min" : [
                -4.978283405303955,
                -0.10000000149011612,
                -10.25
            ],
            "type" : "VEC3"
        },
        {
            "bufferView" : 1,
            "componentType" : 5126,
            "count" : 28,
            "type" : "VEC3"
        },
        {
            "bufferView" : 2,
            "componentType" : 5126,
            "count" : 28,
            "type" : "VEC2"
        },
        {
            "bufferView" : 3,
            "componentType" : 5126,
            "count" : 28,
            "type" : "VEC2"
        },
        {
            "bufferView" : 4,
            "componentType" : 5126,
            "count" : 28,
            "type" : "VEC2"
        },
        {
            "bufferView" : 5,
            "componentType" : 5123,
            "count" : 36,
            "type" : "SCALAR"
        },
        {
            "bufferView" : 9,
            "componentType" : 5126,
            "count" : 16,
            "max" : [
                4.978283405303955,
                3.3981661796569824,
                10.25
            ],
            "min" : [
                -4.978283405303955,
                6.276315086411761e-16,
                -10.25
            ],
            "type" : "VEC3"
        },
        {
            "bufferView" : 10,
            "componentType" : 5126,
            "count" : 16,
            "type" : "VEC3"
        },
        {
            "bufferView" : 11,
            "componentType" : 5126,
            "count" : 16,
            "type" : "VEC2"
        },
        {
            "bufferView" : 12,
            "componentType" : 5126,
            "count" : 16,
            "type" : "VEC2"
        },
        {
            "bufferView" : 13,
            "componentType" : 5126,
            "count" : 16,
            "type" : "VEC2"
        },
        {
            "bufferView" : 14,
            "componentType" : 5123,
            "count" : 18,
            "type" : "SCALAR"
        }
    ],
    "bufferViews" : [
        {
            "buffer" : 0,
            "byteLength" : 336,
            "byteOffset" : 0
        },
        {
            "buffer" : 0,
            "byteLength" : 336,
            "byteOffset" : 336
        },
        {
            "buffer" : 0,
            "byteLength" : 224,
            "byteOffset" : 672
        },
        {
            "buffer" : 0,
            "byteLength" : 224,
            "byteOffset" : 896
        },
        {
            "buffer" : 0,
            "byteLength" : 224,
            "byteOffset" : 1120
        },
        {
            "buffer" : 0,
            "byteLength" : 72,
            "byteOffset" : 1344
        },
        {
            "buffer" : 0,
            "byteLength" : 1841,
            "byteOffset" : 1416
        },
        {
            "buffer" : 0,
            "byteLength" : 181081,
            "byteOffset" : 3260
        },
        {
            "buffer" : 0,
            "byteLength" : 837446,
            "byteOffset" : 184344
        },
        {
            "buffer" : 0,
            "byteLength" : 192,
            "byteOffset" : 1021792
        },
        {
            "buffer" : 0,
            "byteLength" : 192,
            "byteOffset" : 1021984
        },
        {
            "buffer" : 0,
            "byteLength" : 128,
            "byteOffset" : 1022176
        },
        {
            "buffer" : 0,
            "byteLength" : 128,
            "byteOffset" : 1022304
        },
        {
            "buffer" : 0,
            "byteLength" : 128,
            "byteOffset" : 1022432
        },
        {
            "buffer" : 0,
            "byteLength" : 36,
            "byteOffset" : 1022560
        },
        {
            "buffer" : 0,
            "byteLength" : 181081,
            "byteOffset" : 1022596
        },
        {
            "buffer" : 0,
            "byteLength" : 893619,
            "byteOffset" : 1203680
        }
    ],
    "samplers" : [
        {
            "magFilter" : 9729,
            "minFilter" : 9987
        }
    ],
    "buffers" : [
        {
            "byteLength" : 2097300,
            "uri" : "data:application/octet-stream;base64,"
        }
    ]
}
