{
  "accessors": [
    {
      "bufferView": 2,
      "componentType": 5126,
      "count": 1056,
      "max": [
        7.5077552795410156,
        0.86602538824081421,
        7.5333633422851562
      ],
      "min": [
        -7.541905403137207,
        -0.86602538824081421,
        -7.5333633422851562
      ],
      "type": "VEC3"
    },
    {
      "bufferView": 2,
      "byteOffset": 12672,
      "componentType": 5126,
      "count": 1056,
      "max": [
        0.96588665246963501,
        1,
        0.96479260921478271
      ],
      "min": [
        -0.96588665246963501,
        -1,
        -0.96479260921478271
      ],
      "type": "VEC3"
    },
    {
      "bufferView": 1,
      "componentType": 5126,
      "count": 1056,
      "max": [
        1,
        1
      ],
      "min": [
        0,
        0
      ],
      "type": "VEC2"
    },
    {
      "bufferView": 0,
      "componentType": 5125,
      "count": 1584,
      "max": [
        1055
      ],
      "min": [
        0
      ],
      "type": "SCALAR"
    },
    {
      "bufferView": 2,
      "byteOffset": 25344,
      "componentType": 5126,
      "count": 528,
      "max": [
        7.5077552795410156,
        0.86602538824081421,
        7.5333633422851562
      ],
      "min": [
        -7.541905403137207,
        -0.86602538824081421,
        -7.5333633422851562
      ],
      "type": "VEC3"
    },
    {
      "bufferView": 2,
      "byteOffset": 31680,
      "componentType": 5126,
      "count": 528,
      "max": [
        0.96588665246963501,
        1,
        0.96479260921478271
      ],
      "min": [
        -0.96588665246963501,
        -1,
        -0.96479260921478271
      ],
      "type": "VEC3"
    },
    {
      "bufferView": 1,
      "byteOffset": 8448,
      "componentType": 5126,
      "count": 528,
      "max": [
        1,
        1
      ],
      "min": [
        0,
        0
      ],
      "type": "VEC2"
    },
    {
      "bufferView": 0,
      "byteOffset": 6336,
      "componentType": 5125,
      "count": 792,
      "max": [
        527
      ],
      "min": [
        0
      ],
      "type": "SCALAR"
    },
    {
      "bufferView": 3,
      "componentType": 5126,
      "count": 3000,
      "max": [
        100
      ],
      "min": [
        0.033333335071802139
      ],
      "type": "SCALAR"
    },
    {
      "bufferView": 4,
      "componentType": 5126,
      "count": 3000,
      "max": [
        0.49974694848060608,
        0.70710676908493042,
        0.70710676908493042,
        0.70710676908493042
      ],
      "min": [
        -0.70710676908493042,
        -0.49974694848060608,
        -0.4997306764125824,
        -0.4997306764125824
      ],
      "type": "VEC4"
    }
  ],
  "animations": [
    {
      "channels": [
        {
          "sampler": 0,
          "target": {
            "node": 5,
            "path": "rotation"
          }
        }
      ],
      "name": "Take 001",
      "samplers": [
        {
          "input": 8,
          "interpolation": "LINEAR",
          "output": 9
        }
      ]
    }
  ],
  "asset": {
    "extras": {
      "author": "ENEA LE FONS (https://sketchfab.com/enealefons)",
      "license": "CC-BY-4.0 (http://creativecommons.org/licenses/by/4.0/)",
      "source": "https://sketchfab.com/3d-models/uxr-circle-rotating-ring-e1ec7c0ea9314a689feecba3ca4c8240",
      "title": "UXR circle rotating ring"
    },
    "generator": "Sketchfab-8.0.0",
    "version": "2.0"
  },
  "bufferViews": [
    {
      "buffer": 0,
      "byteLength": 9504,
      "byteOffset": 0,
      "name": "floatBufferViews",
      "target": 34963
    },
    {
      "buffer": 0,
      "byteLength": 12672,
      "byteOffset": 9504,
      "byteStride": 8,
      "name": "floatBufferViews",
      "target": 34962
    },
    {
      "buffer": 0,
      "byteLength": 38016,
      "byteOffset": 22176,
      "byteStride": 12,
      "name": "floatBufferViews",
      "target": 34962
    },
    {
      "buffer": 0,
      "byteLength": 12000,
      "byteOffset": 60192,
      "name": "floatBufferViews"
    },
    {
      "buffer": 0,
      "byteLength": 48000,
      "byteOffset": 72192,
      "byteStride": 16,
      "name": "floatBufferViews"
    }
  ],
  "buffers": [
    {
      "byteLength": 120192,
      "uri": "scene.bin"
    }
  ],
  "images": [
    {
      "uri": "textures/WorldGridMaterial_baseColor.jpeg"
    }
  ],
  "materials": [
    {
      "doubleSided": true,
      "emissiveFactor": [
        0.98636372884114587,
        0.98636372884114587,
        0.98636372884114587
      ],
      "emissiveTexture": {
        "index": 0,
        "texCoord": 0
      },
      "name": "WorldGridMaterial",
      "pbrMetallicRoughness": {
        "baseColorFactor": [
          1,
          1,
          1,
          1
        ],
        "baseColorTexture": {
          "index": 0,
          "texCoord": 0
        },
        "metallicFactor": 0,
        "roughnessFactor": 0.95770514946237739
      }
    },
    {
      "doubleSided": true,
      "emissiveFactor": [
        1,
        1,
        1
      ],
      "name": "Material2",
      "pbrMetallicRoughness": {
        "baseColorFactor": [
          1,
          1,
          1,
          1
        ],
        "baseColorTexture": {
          "index": 0,
          "texCoord": 0
        },
        "metallicFactor": 0,
        "roughnessFactor": 0.78852574731188718
      }
    }
  ],
  "meshes": [
    {
      "name": "torus_WorldGridMaterial_0",
      "primitives": [
        {
          "attributes": {
            "NORMAL": 1,
            "POSITION": 0,
            "TEXCOORD_0": 2
          },
          "indices": 3,
          "material": 0,
          "mode": 4
        }
      ]
    },
    {
      "name": "torus_Material2_0",
      "primitives": [
        {
          "attributes": {
            "NORMAL": 5,
            "POSITION": 4,
            "TEXCOORD_0": 6
          },
          "indices": 7,
          "material": 1,
          "mode": 4
        }
      ]
    }
  ],
  "nodes": [
    {
      "children": [
        1
      ],
      "name": "RootNode (gltf orientation matrix)",
      "rotation": [
        -0.70710678118654746,
        -0,
        -0,
        0.70710678118654757
      ]
    },
    {
      "children": [
        2
      ],
      "matrix": [
        -2.2204460492503131e-16,
        1,
        1.1102230246251565e-16,
        0,
        -1,
        -2.2204460492503131e-16,
        3.8285688045569402e-16,
        0,
        3.8285688045569402e-16,
        -1.1102230246251565e-16,
        1,
        0,
        -99.266258239746094,
        -99.218223571777344,
        -0.00012596580199897289,
        1
      ],
      "name": "RootNode (model correction matrix)"
    },
    {
      "children": [
        3
      ],
      "matrix": [
        1,
        0,
        0,
        0,
        0,
        0,
        1,
        0,
        0,
        -1,
        0,
        0,
        0,
        0,
        0,
        1
      ],
      "name": "CIRCLEring.fbx"
    },
    {
      "children": [
        4
      ],
      "name": ""
    },
    {
      "children": [
        5
      ],
      "name": "RootNode"
    },
    {
      "children": [
        6,
        7
      ],
      "name": "torus",
      "rotation": [
        0,
        0,
        0.7071068286895752,
        0.7071068286895752
      ],
      "scale": [
        30.641277313232422,
        29.485891342163086,
        30.641277313232422
      ],
      "translation": [
        -0.01715688593685627,
        0.52570885419845581,
        99.237586975097656
      ]
    },
    {
      "mesh": 0,
      "name": "torus_WorldGridMaterial_0"
    },
    {
      "mesh": 1,
      "name": "torus_Material2_0"
    }
  ],
  "samplers": [
    {
      "magFilter": 9729,
      "minFilter": 9987,
      "wrapS": 10497,
      "wrapT": 10497
    }
  ],
  "scene": 0,
  "scenes": [
    {
      "name": "OSG_Scene",
      "nodes": [
        0
      ]
    }
  ],
  "textures": [
    {
      "sampler": 0,
      "source": 0
    }
  ]
}

